# xmcd CD database file
#
# Track frame offsets:
#	150
#	16513
#	27233
#	46514
#	62241
#	81127
#	104751
#	121163
#	143117
#	161425
#	179108
#	193567
#	207043
#	225459
#	244457
#	263866
#	276384
#	294842
#	310594
#	325472
#	340851
#
# Disc length: 4718 seconds
#
# Revision: 0
# Processed by: cddbd v1.5.1PL0 Copyright (c) Steve Scherf et al.
# Submitted via: CDex 1.51
#
DISCID=28126c15
DTITLE=diverse - Line-Fire-Edition 10
DYEAR=2004
DGENRE=LineDance
TTITLE0=01 - Party For Two [ Party For Two ] Shania Twain
TTITLE1=02 - Rama Lama Ding Dong [ Rama Lama Ding Dong ]Rocky Sharpe and The Replays
TTITLE2=03 - Old Stuff [ The Old Stuff ] Garth Brooks
TTITLE3=04 - Closer [ Closer ] Susan Ashton
TTITLE4=05 - Magic [ When You Say You Love Me ] Clay Aiken
TTITLE5=06 - Dance On  [ Dance On ] Rick Tippe
TTITLE6=07 - Until The End [ Stuck On You  ] 3 T
TTITLE7=08 - Simply Cha Cha [ When The Sun Goes Down] Kenny Chesney and Uncle Kracker
TTITLE8=09 - A Devil In Me [ Diavolo In Me ] Zucchero Feat. Solomon Burke
TTITLE9=10 - Slow Burn [ Fire (american) ] Des'ree and Babyface
TTITLE10=11 - Burning Love [ Burning Love ] Wayonna
TTITLE11=12 - Sweet, Sweet Smile [Sweet Sweet Smile ] Carpenters
TTITLE12=13 - Mustang Sally [ Mustang Sally ] Commitments
TTITLE13=14 - Femme Like U [ Femme Like You ] K.Maro
TTITLE14=15 - Bounce [ Bounce ] Sarah Connor
TTITLE15=16 - Thrill Of The Chase [ Thrill Of The Chase ] Brett James
TTITLE16=17 - Mexican Outlaw [ Blue Rodeo ] Bellamy Brothers
TTITLE17=18 - All Day Long [ Mr. Mom ] Lonestar
TTITLE18=19 - Mars Attack [ Chocolate Choco Choco ] Soul Control
TTITLE19=20 - Everyday [ Everyday ] The Deans
TTITLE20=21 - Movin ' Up [ Up ! ] Shania Twain
EXTD=YEAR: 2004
EXTT0=
EXTT1=
EXTT2=
EXTT3=
EXTT4=
EXTT5=
EXTT6=
EXTT7=
EXTT8=
EXTT9=
EXTT10=
EXTT11=
EXTT12=
EXTT13=
EXTT14=
EXTT15=
EXTT16=
EXTT17=
EXTT18=
EXTT19=
EXTT20=
PLAYORDER=
